<svg width="63" height="52" viewBox="0 0 63 52" fill="none" xmlns="http://www.w3.org/2000/svg">
<path d="M59.2704 34.8236H62.7L58.2151 30.1628C51.7956 23.4795 42.9139 19.6982 33.5924 19.6982H32.5372H30.2508H29.1076C19.8741 19.6982 10.9923 23.4795 4.48485 30.1628L0 34.8236H3.42959C12.6631 34.8236 21.5449 31.0422 28.0523 24.3589L31.394 20.9293C29.4593 32.713 12.6631 51.356 12.6631 51.356H31.4819H50.3007C50.3007 51.356 33.6804 32.9769 31.5698 21.1931L34.6477 24.4468C41.0672 31.0422 49.9489 34.8236 59.2704 34.8236Z" fill="#201B21"/>
<path d="M28.5799 12.839L31.306 10.025L34.0321 12.839C39.3084 18.3791 46.6952 21.4569 54.3459 21.4569H57.1599L53.4665 17.5877C48.1902 12.0475 40.8034 8.9697 33.1527 8.9697H32.2734H30.3387H29.4593C21.8087 8.9697 14.5098 12.0475 9.14559 17.5877L5.45218 21.5449H8.2662C15.9168 21.5449 23.3036 18.3791 28.5799 12.839Z" fill="#201B21"/>
<path d="M29.1076 3.16578L31.306 0.879383L33.5045 3.16578C37.8135 7.65063 43.7933 10.2008 50.0369 10.2008H52.3233L49.3334 7.03506C45.0244 2.55021 39.0446 0 32.801 0H32.0975H30.5146H29.8111C23.5675 0 17.5877 2.55021 13.2787 7.03506L10.2888 10.2008H12.5752C18.8188 10.2008 24.7986 7.65063 29.1076 3.16578Z" fill="#201B21"/>
</svg>
